# xmcd CD database file
#
# Track frame offsets:
#	225
#	16938
#	32776
#	51017
#	66960
#
# Disc length: 1158 seconds
#
# Revision: 0
# Processed by: cddbd v1.5.2PL0 Copyright (c) Steve Scherf et al.
# Submitted via: CDex 1.70beta2
#
DISCID=3b048305
DTITLE=Martin Zak and Katka Garcia - Chmurne balady z odvracene strany
DYEAR=2012
DGENRE=Country
TTITLE0=Chudak Tom Dula
TTITLE1=Krehka Sadie a mizera Lee Brown
TTITLE2=Slicna Polly
TTITLE3=Dopisy ze stare skrinky
TTITLE4=Balada o Barbry Allen
EXTD=YEAR: 2012
EXTT0=
EXTT1=
EXTT2=
EXTT3=
EXTT4=
PLAYORDER=
